<svg width="300" height="301" viewBox="0 0 300 301" fill="none" xmlns="http://www.w3.org/2000/svg">
<path fill-rule="evenodd" clip-rule="evenodd" d="M264.48 156.54C264.48 173.48 260.8 189.56 254.2 204.02C254.16 204.1 254.14 204.18 254.1 204.24C251.34 210.26 248.06 216.02 244.32 221.42C240.52 226.92 236.26 232.08 231.58 236.84C229.72 238.74 227.8 240.56 225.8 242.32C223.06 244.74 220.2 247.04 217.24 249.2C207.98 255.94 197.66 261.32 186.58 265.06C181.7 266.7 176.68 268.02 171.52 269C164.54 270.32 157.34 271.02 149.98 271.02C119.52 271.02 91.8195 259.12 71.3195 239.7C54.2195 223.52 42.0995 202.1 37.5195 178.02C36.2795 171.5 35.5995 164.8 35.5195 157.94C35.5195 157.48 35.5195 157 35.5195 156.54C35.5195 137.74 40.0595 120 48.0795 104.34C48.8195 102.9 49.5795 101.48 50.3795 100.06C58.0795 86.5 68.4795 74.66 80.8395 65.28C87.9595 59.86 95.7595 55.28 104.04 51.64C118.1 45.46 133.64 42.04 150 42.04C170.78 42.04 190.26 47.58 207.06 57.26C211.68 59.92 216.1 62.9 220.28 66.16C227.54 71.82 234.12 78.34 239.82 85.54C240.84 86.82 241.82 88.12 242.78 89.46C245.74 93.54 248.42 97.82 250.82 102.28C259.54 118.44 264.48 136.92 264.48 156.54Z" fill="#DBF2FF"/>
<path fill-rule="evenodd" clip-rule="evenodd" d="M218.24 259.26C217.98 259.38 217.72 259.5 217.44 259.62C217.18 259.74 216.9 259.86 216.64 259.98C216.38 260.1 216.1 260.22 215.84 260.32C215.6 260.42 215.34 260.52 215.1 260.62C214.5 260.86 213.88 261.1 213.28 261.34C213.06 261.42 212.84 261.5 212.6 261.58C212.32 261.68 212.06 261.78 211.78 261.86C211.54 261.94 211.28 262.02 211.02 262.12C210.94 262.14 210.88 262.16 210.8 262.18C210.58 262.26 210.34 262.32 210.12 262.4C209.84 262.48 209.56 262.56 209.3 262.66C209.02 262.74 208.74 262.82 208.46 262.9C208.24 262.96 208.02 263.02 207.78 263.08C207.68 263.1 207.58 263.14 207.46 263.16C207.3 263.2 207.12 263.24 206.96 263.28C206.86 263.3 206.76 263.32 206.68 263.36C206.16 263.5 205.64 263.62 205.1 263.74C204.86 263.8 204.64 263.84 204.4 263.9C204.32 263.92 204.22 263.94 204.14 263.96C203.9 264 203.66 264.06 203.42 264.1C203.14 264.16 202.86 264.2 202.58 264.26C202.3 264.3 202.02 264.36 201.76 264.4C201.44 264.46 201.1 264.5 200.78 264.56C200.56 264.6 200.34 264.62 200.14 264.66C199.6 264.74 199.06 264.8 198.52 264.86C198.4 264.88 198.26 264.88 198.14 264.9C197.94 264.92 197.72 264.94 197.52 264.96C197.36 264.98 197.2 264.98 197.06 265C196.92 265.02 196.76 265.02 196.62 265.04C196.4 265.06 196.2 265.08 195.98 265.08C195.86 265.1 195.74 265.1 195.62 265.1C195.42 265.12 195.22 265.12 195.02 265.14C194.4 265.18 193.78 265.2 193.18 265.22C192.94 265.22 192.7 265.24 192.46 265.24C190.52 265.28 188.58 265.2 186.64 265.06C181.76 266.7 176.74 268.02 171.58 269C164.6 270.32 157.4 271.02 150.04 271.02C119.58 271.02 91.8804 259.12 71.3804 239.7C54.2804 223.52 42.1604 202.1 37.5804 178.02L35.7204 159.34L35.5804 157.94L30.4004 106.1L48.1404 104.32L70.6004 102.1L78.8804 101.28L79.2804 101.24L94.4804 99.72L121.06 97.06L197.3 89.44L201.22 89.04L201.28 89.66L206.48 141.74L206.54 142.3L207.2 148.94L207.62 153.14L210.9 186.02L211.18 188.74L211.86 195.6L217.08 247.88L217.22 249.24L218.24 259.26Z" fill="#4FB4F3"/>
<path fill-rule="evenodd" clip-rule="evenodd" d="M251.7 86.1998L251.5 89.7998L250.82 102.28L246.94 173.42L246.62 179.32L245.64 197.42L244.34 221.42L237.24 238.16L243.14 243.5L243.02 245.82L242.04 263.88L230.1 251.94C229.86 252.12 229.62 252.32 229.38 252.5C229.16 252.66 228.94 252.84 228.72 253C228.72 253.02 228.7 253.02 228.7 253.02C228.46 253.2 228.24 253.36 228 253.52C227.72 253.72 227.42 253.92 227.14 254.12C227 254.22 226.86 254.32 226.72 254.42C225.82 255.04 224.9 255.62 223.96 256.2C223.64 256.38 223.34 256.58 223.02 256.76C222.78 256.9 222.52 257.04 222.28 257.18C222.16 257.26 222.02 257.32 221.9 257.4C221.72 257.5 221.54 257.6 221.36 257.7C221.14 257.82 220.92 257.94 220.68 258.06C220.14 258.34 219.6 258.62 219.04 258.9C218.8 259.02 218.54 259.14 218.3 259.26H218.28C218.02 259.38 217.76 259.5 217.48 259.62C217.22 259.74 216.94 259.86 216.68 259.98C216.42 260.1 216.14 260.22 215.88 260.32C215.64 260.42 215.38 260.52 215.14 260.62C214.54 260.86 213.92 261.1 213.32 261.34C213.1 261.42 212.88 261.5 212.64 261.58C212.36 261.68 212.1 261.78 211.82 261.86C211.58 261.94 211.32 262.02 211.06 262.12C210.98 262.14 210.92 262.16 210.84 262.18C210.62 262.26 210.38 262.32 210.16 262.4C209.88 262.48 209.6 262.56 209.34 262.66C209.06 262.74 208.78 262.82 208.5 262.9C208.28 262.96 208.06 263.02 207.82 263.08C207.72 263.1 207.62 263.14 207.5 263.16C207.34 263.2 207.16 263.24 207 263.28C206.9 263.3 206.8 263.32 206.72 263.36C206.2 263.5 205.68 263.62 205.14 263.74C204.9 263.8 204.68 263.84 204.44 263.9C204.36 263.92 204.26 263.94 204.18 263.96C203.94 264 203.7 264.06 203.46 264.1C203.18 264.16 202.9 264.2 202.62 264.26C202.34 264.3 202.06 264.36 201.8 264.4C201.48 264.46 201.14 264.5 200.82 264.56C200.6 264.6 200.38 264.62 200.18 264.66C199.64 264.74 199.1 264.8 198.56 264.86C198.44 264.88 198.3 264.88 198.18 264.9C197.98 264.92 197.76 264.94 197.56 264.96C197.4 264.98 197.24 264.98 197.1 265C196.96 265.02 196.8 265.02 196.66 265.04C196.44 265.06 196.24 265.08 196.02 265.08C195.9 265.1 195.78 265.1 195.66 265.1C195.46 265.12 195.26 265.12 195.06 265.14C194.44 265.18 193.82 265.2 193.22 265.22C192.98 265.22 192.74 265.24 192.5 265.24C190.56 265.28 188.62 265.2 186.68 265.06C181.8 266.7 176.78 268.02 171.62 269C164.64 270.32 157.44 271.02 150.08 271.02C119.62 271.02 91.9199 259.12 71.4199 239.7L72.0799 227.56V227.48L76.0199 155.34L78.9599 101.26L79.1799 97.1998L80.2799 76.8398L95.4399 77.6598L207.64 83.7798L219.48 84.4198L239.9 85.5398L247.9 85.9798L251.7 86.1998Z" fill="#ACDCFA"/>
<path fill-rule="evenodd" clip-rule="evenodd" d="M254.2 204.02C253.68 215.22 250.64 226.42 244.52 235.94C244.18 236.5 236.84 236.88 236.48 237.42C247.56 246.56 244.04 244.66 234.08 255.94C230.92 252.9 230.62 250.72 226.68 254.42C210.5 266.88 189.94 263.38 171.54 269C140.14 259.1 121.5 221.96 131.9 191.22C150.74 126.64 249.1 136.72 254.2 204.02Z" fill="#4FB4F3"/>
<path fill-rule="evenodd" clip-rule="evenodd" d="M206.56 142.3L181.96 144.74L163.18 146.62L109.92 151.94L76.1604 155.32L75.9404 155.34L70.8604 155.84L35.6604 159.36L35.5204 157.96L29.9404 102.12L50.4004 100.08L79.1004 97.2L94.7204 95.64L94.9204 95.62L171.16 88.02L200.84 85.04L201.3 89.66L206.52 141.74L206.56 142.3Z" fill="#4FB4F3"/>
<path fill-rule="evenodd" clip-rule="evenodd" d="M79.5201 97.1602L70.5801 98.0602L71.3001 239.66L79.5201 97.1602Z" fill="#3594DC"/>
<path fill-rule="evenodd" clip-rule="evenodd" d="M251.52 89.8004L250.84 102.28L246.96 173.42L245.64 197.42L243.22 197.3L209.92 195.48L198.3 194.84L140.56 191.7L129.82 191.1L74.2796 188.08H74.1396L75.9396 155.34L79.0996 97.2004L80.8396 65.3004L81.6596 50.4404L104.04 51.6604L207.06 57.2804L220.66 58.0204L251.52 89.8004Z" fill="#ACDCFA"/>
<path d="M95.6398 72.7682L95.0352 83.8516L207.227 89.9718L207.831 78.8885L95.6398 72.7682Z" fill="#DBF2FF"/>
<path d="M94.7238 95.6217L94.1191 106.705L162.097 110.413L162.702 99.33L94.7238 95.6217Z" fill="#DBF2FF"/>
<path d="M93.3584 139.924L92.7539 151.007L200.811 156.901L201.416 145.817L93.3584 139.924Z" fill="#DBF2FF"/>
<path d="M92.5713 166.477L91.9668 177.561L124.438 179.332L125.042 168.248L92.5713 166.477Z" fill="#DBF2FF"/>
<path fill-rule="evenodd" clip-rule="evenodd" d="M264.84 275.96C261.88 278.92 257.06 278.92 254.08 275.96L242 263.88L227.76 249.64C225.78 247.66 225.12 244.84 225.8 242.32C225.88 241.98 226 241.66 226.14 241.34C226.5 240.46 227.06 239.62 227.78 238.9C228.5 238.18 229.34 237.64 230.22 237.26C230.66 237.08 231.12 236.94 231.58 236.84C234 236.34 236.64 237.02 238.52 238.9L240.8 241.18L243.1 243.5L264.82 265.22C267.82 268.18 267.82 273 264.84 275.96Z" fill="#ED3F07"/>
<path fill-rule="evenodd" clip-rule="evenodd" d="M254.12 203.16C252 281.4 138.6 286.68 129.12 209.1C122.82 122.2 252 115.72 254.12 203.16Z" fill="#F2763D"/>
<path d="M191.46 254.6C220.19 254.6 243.48 231.309 243.48 202.58C243.48 173.85 220.19 150.56 191.46 150.56C162.731 150.56 139.44 173.85 139.44 202.58C139.44 231.309 162.731 254.6 191.46 254.6Z" fill="#DBF2FF"/>
<path d="M211.2 188.72C211.18 187.78 211.1 186.88 210.92 186C210.28 182.52 208.54 179.48 205.66 176.84C202.04 173.54 197.22 171.84 191.16 171.84C185.42 171.84 180.82 173.42 177.32 176.52C174.78 178.76 172.96 181.7 171.88 185.36C170.94 188.52 173.1 191.76 176.36 192.14C178.94 192.44 181.38 190.84 182.1 188.36C182.74 186.2 183.66 184.52 184.92 183.32C186.62 181.74 188.74 180.96 191.26 180.96C193.9 180.96 196.12 181.82 197.94 183.58C199.72 185.3 200.62 187.3 200.62 189.58C200.62 190.78 200.34 191.9 199.76 192.92C199.44 193.48 198.94 194.12 198.26 194.84C197.5 195.66 196.54 196.58 195.36 197.62C192.84 199.84 191.12 201.54 190.14 202.7C188.74 204.4 187.72 206.08 187.1 207.74C186.26 209.9 185.82 212.48 185.82 215.46C185.82 217.54 187.52 219.24 189.6 219.24H192.22C194.24 219.24 195.9 217.66 196 215.64C196.08 214.02 196.24 212.76 196.46 211.92C196.74 210.88 197.16 209.96 197.76 209.16C198.42 208.26 199.84 206.86 202 204.94C205.58 201.76 207.98 199.04 209.2 196.82C209.44 196.38 209.66 195.94 209.86 195.48C210.72 193.5 211.16 191.38 211.16 189.12C211.2 188.98 211.2 188.86 211.2 188.72ZM191.12 221.98C188 221.98 185.46 224.52 185.46 227.64C185.46 230.78 188 233.3 191.12 233.3C194.26 233.3 196.78 230.76 196.78 227.64C196.78 224.52 194.24 221.98 191.12 221.98Z" fill="#F2763D"/>
<path fill-rule="evenodd" clip-rule="evenodd" d="M251.52 89.7995L242.78 89.4795L219.2 88.5995L220.28 66.1595L220.66 58.0195L251.52 89.7995Z" fill="#4FB4F3"/>
</svg>
