<?xml version="1.0" encoding="utf-8"?>
<!-- Generator: Adobe Illustrator 27.5.0, SVG Export Plug-In . SVG Version: 6.00 Build 0)  -->
<svg version="1.1" xmlns="http://www.w3.org/2000/svg" xmlns:xlink="http://www.w3.org/1999/xlink" x="0px" y="0px"
	 viewBox="0 0 1122 1122" style="enable-background:new 0 0 1122 1122;" xml:space="preserve">
<g id="BG">
	<rect style="fill:#FFFFFF;" width="1122" height="1122"/>
</g>
<g id="Objects">
	<g>
		<path style="fill:none;" d="M640.957,744.295c-1.141,0-2.258-0.262-3.329-0.666l-8.401,6.559c0.131,2.235-0.564,4.465-1.963,6.284
			l16-12.493C642.503,744.171,641.731,744.295,640.957,744.295z"/>
		<polygon style="fill:#767676;" points="653.537,851.724 601.998,891.971 625.566,891.971 653.537,870.122 		"/>
		<polygon style="fill:#767676;" points="653.537,828.565 572.344,891.971 595.886,891.971 653.537,846.958 		"/>
		<path style="fill:#767676;" d="M585.1,776.847c1.43,1.903,1.993,4.169,1.826,6.37l9.528-7.44
			c-2.045-0.498-3.939-1.668-5.303-3.482c-2.305-3.067-2.441-7.078-0.695-10.232l-14.299,11.167
			C579.472,772.734,582.944,773.981,585.1,776.847z"/>
		<path style="fill:#767676;" d="M627.359,745.082c1.157,1.539,1.764,3.318,1.869,5.106l8.401-6.559
			c-0.211-0.08-0.431-0.13-0.636-0.225h-11.309C626.292,743.89,626.868,744.43,627.359,745.082z"/>
		<path style="fill:#767676;" d="M627.265,756.471c-0.509,0.662-1.079,1.287-1.779,1.814l-14.601,10.976l-52.361,40.884v18.39
			l95.013-74.19v-10.942h-8.641c-0.531,0.246-1.076,0.434-1.632,0.575L627.265,756.471z"/>
		<polygon style="fill:#767676;" points="653.537,805.41 558.524,879.603 558.524,891.971 566.242,891.971 653.537,823.806 		"/>
		<polygon style="fill:#767676;" points="584.689,743.404 558.524,763.834 558.524,782.242 608.26,743.404 		"/>
		<polygon style="fill:#767676;" points="653.537,782.266 558.524,856.462 558.524,874.852 653.537,800.662 		"/>
		<polygon style="fill:#767676;" points="653.537,759.105 558.524,833.292 558.524,851.703 653.537,777.513 		"/>
		<polygon style="fill:#767676;" points="653.537,874.87 631.636,891.971 653.537,891.971 		"/>
		<polygon style="fill:#767676;" points="558.524,743.404 558.524,759.084 578.604,743.404 		"/>
		<rect x="291.416" y="898.453" style="fill:#1A1A1E;" width="505.305" height="13.833"/>
		<path style="fill:#CCCCCC;" d="M328.091,844.724c3.198,4.112,2.457,10.036-1.655,13.236l-14.752,11.473v22.538h106.918V786.269
			l-3.227,2.51c-1.722,1.34-3.76,1.988-5.784,1.988c-2.81,0-5.59-1.251-7.45-3.639c-3.198-4.112-2.457-10.036,1.653-13.232
			l14.807-11.518v-76.484H311.684v159.646l3.175-2.469C318.966,839.876,324.891,840.612,328.091,844.724z M344.504,820.012
			l29.646-23.06c4.109-3.2,10.031-2.46,13.234,1.652c3.198,4.112,2.457,10.036-1.653,13.233l-29.646,23.06
			c-1.722,1.34-3.76,1.988-5.784,1.988c-2.81,0-5.59-1.251-7.45-3.639C339.652,829.133,340.393,823.209,344.504,820.012z"/>
		<path style="fill:#CCCCCC;" d="M446.676,752.486c3.198,4.112,2.457,10.036-1.653,13.232l-12.787,9.946v116.307h106.921v-68.794
			l-19.317,14.52c-1.698,1.278-3.685,1.893-5.658,1.893c-2.864,0-5.692-1.298-7.546-3.764c-3.128-4.162-2.291-10.074,1.873-13.203
			l21.129-15.883c2.845-2.141,6.488-2.386,9.519-1.025V577.129H432.235v174.643l1.206-0.938
			C437.553,747.631,443.476,748.374,446.676,752.486z M500.58,840.378c3.128,4.162,2.291,10.075-1.872,13.203l-27.254,20.488
			v-34.097c0-5.208,4.222-9.43,9.43-9.43c4.228,0,7.805,2.781,9.002,6.613C493.664,835.811,498.039,837,500.58,840.378z
			 M471.455,807.008v-32.96c0-5.208,4.222-9.43,9.43-9.43c5.208,0,9.43,4.222,9.43,9.43v32.96c0,5.208-4.222,9.43-9.43,9.43
			C475.676,816.438,471.455,812.216,471.455,807.008z M463.087,727.77l27.227-21.171v34.49c0,5.208-4.222,9.43-9.43,9.43
			c-4.143,0-7.664-2.671-8.929-6.388c-3.711,1.275-7.98,0.143-10.525-3.128C458.234,736.894,458.975,730.967,463.087,727.77z"/>
		<path style="fill:#767676;" d="M779.927,517.532H673.009v374.439h106.918V517.532z M710.004,694.757l-21.131,15.883
			c-1.698,1.277-3.685,1.892-5.658,1.892c-2.864,0-5.692-1.298-7.546-3.764c-3.128-4.162-2.291-10.074,1.872-13.203l21.129-15.883
			c4.168-3.131,10.073-2.294,13.206,1.872C715.004,685.717,714.167,691.629,710.004,694.757z M749.837,662.692l-4.18,14.626
			c-0.247,0.864-0.629,1.648-1.082,2.376c-0.005,0.84-0.08,1.688-0.322,2.535l-1.402,4.914c-0.247,0.867-0.63,1.653-1.084,2.382
			c-0.005,0.839-0.081,1.686-0.323,2.532l-4.18,14.626c-1.184,4.142-4.96,6.842-9.063,6.842c-0.859,0-1.729-0.119-2.597-0.365
			c-5.008-1.432-7.906-6.652-6.475-11.658l4.18-14.626c0.245-0.857,0.635-1.625,1.082-2.347c0.002-0.848,0.077-1.705,0.321-2.561
			l0.356-1.247c-2.721-0.118-5.373-1.37-7.138-3.718c-1.429-1.901-1.992-4.165-1.826-6.365l-1.284,0.057
			c-0.143,0.006-0.285,0.009-0.428,0.009c-0.834,0-1.63-0.145-2.404-0.35c-0.871,0.314-1.783,0.545-2.757,0.588l-15.196,0.677
			c-0.143,0.006-0.285,0.009-0.428,0.009c-5.015,0-9.188-3.948-9.413-9.011c-0.232-5.202,3.798-9.608,9-9.84l15.196-0.677
			c0.983-0.052,1.926,0.098,2.835,0.34c0.87-0.313,1.781-0.544,2.754-0.587l5.587-0.25c0.97-0.039,1.899,0.114,2.797,0.353
			c0.881-0.321,1.804-0.556,2.79-0.6l15.196-0.677c3.008-0.098,5.94,1.194,7.821,3.577
			C750.051,656.637,750.67,659.778,749.837,662.692z"/>
		<path style="fill:#1A1A1E;" d="M255.567,889.187l-12.008,9.338c-4.112,3.197-4.853,9.124-1.656,13.233
			c1.86,2.392,4.641,3.642,7.451,3.642c2.023,0,4.063-0.648,5.783-1.984l12.008-9.338c4.112-3.197,4.853-9.124,1.656-13.233
			C265.602,886.73,259.679,885.993,255.567,889.187z"/>
		<path style="fill:#1A1A1E;" d="M311.684,869.433l14.752-11.473c4.112-3.2,4.853-9.124,1.655-13.236
			c-3.2-4.112-9.125-4.849-13.233-1.655l-3.175,2.469l-26.472,20.588c-4.112,3.2-4.853,9.124-1.655,13.236
			c1.858,2.389,4.639,3.639,7.45,3.639c2.025,0,4.063-0.648,5.783-1.985L311.684,869.433z"/>
		<path style="fill:#1A1A1E;" d="M350.3,836.884c2.025,0,4.063-0.648,5.784-1.988l29.646-23.06c4.11-3.197,4.852-9.121,1.653-13.233
			c-3.203-4.112-9.125-4.852-13.234-1.652l-29.646,23.06c-4.11,3.197-4.852,9.121-1.653,13.232
			C344.71,835.633,347.489,836.884,350.3,836.884z"/>
		<path style="fill:#1A1A1E;" d="M402.141,787.127c1.86,2.389,4.639,3.639,7.45,3.639c2.025,0,4.063-0.648,5.784-1.988l3.227-2.51
			l13.633-10.604l12.787-9.946c4.11-3.197,4.852-9.121,1.653-13.232c-3.2-4.112-9.122-4.854-13.234-1.652l-1.206,0.938
			l-13.633,10.605l-14.807,11.518C399.684,777.091,398.943,783.015,402.141,787.127z"/>
		<path style="fill:#1A1A1E;" d="M471.955,744.131c1.266,3.717,4.786,6.388,8.929,6.388c5.208,0,9.43-4.222,9.43-9.43v-34.49
			l-27.227,21.171c-4.112,3.197-4.853,9.124-1.656,13.233C463.975,744.274,468.245,745.406,471.955,744.131z"/>
		<path style="fill:#1A1A1E;" d="M480.884,816.438c5.208,0,9.43-4.222,9.43-9.43v-32.96c0-5.208-4.222-9.43-9.43-9.43
			c-5.208,0-9.43,4.222-9.43,9.43v32.96C471.455,812.216,475.676,816.438,480.884,816.438z"/>
		<path style="fill:#1A1A1E;" d="M480.884,830.541c-5.208,0-9.43,4.222-9.43,9.43v34.097l27.254-20.488
			c4.162-3.128,5-9.041,1.872-13.203c-2.542-3.378-6.916-4.566-10.694-3.223C488.689,833.322,485.112,830.541,480.884,830.541z"/>
		<path style="fill:#1A1A1E;" d="M529.637,806.741l-21.129,15.883c-4.164,3.128-5.002,9.041-1.873,13.203
			c1.854,2.466,4.682,3.764,7.546,3.764c1.973,0,3.96-0.615,5.658-1.893l19.317-14.52l1.812-1.362
			c4.164-3.128,5.002-9.041,1.873-13.203c-0.992-1.32-2.279-2.265-3.685-2.896C536.125,804.355,532.483,804.6,529.637,806.741z"/>
		<path style="fill:#1A1A1E;" d="M640.957,744.295c0.774,0,1.547-0.124,2.308-0.316c0.556-0.141,1.101-0.329,1.632-0.575
			c0.594-0.275,1.175-0.592,1.719-1.001l21.129-15.88c4.164-3.128,5.002-9.04,1.873-13.203c-3.13-4.162-9.039-5.003-13.204-1.872
			l-21.129,15.88c-4.164,3.128-5.002,9.041-1.873,13.203c0.97,1.29,2.213,2.241,3.581,2.873c0.205,0.095,0.425,0.145,0.636,0.225
			C638.698,744.032,639.816,744.295,640.957,744.295z"/>
		<path style="fill:#1A1A1E;" d="M556.44,807.825c1.973,0,3.96-0.615,5.66-1.893l21.129-15.883c2.259-1.698,3.5-4.219,3.698-6.833
			c0.167-2.201-0.396-4.467-1.826-6.37c-2.156-2.867-5.628-4.114-8.942-3.617c-1.498,0.224-2.967,0.77-4.262,1.745l-21.131,15.883
			c-4.162,3.128-5,9.04-1.872,13.203C550.747,806.527,553.576,807.825,556.44,807.825z"/>
		<path style="fill:#1A1A1E;" d="M591.152,772.296c1.364,1.814,3.258,2.983,5.303,3.482c0.735,0.179,1.486,0.283,2.243,0.283
			c1.973,0,3.96-0.615,5.66-1.893l6.527-4.906l14.601-10.976c0.7-0.526,1.27-1.152,1.779-1.814c1.399-1.819,2.094-4.049,1.963-6.284
			c-0.105-1.788-0.712-3.567-1.869-5.106c-0.491-0.652-1.067-1.192-1.676-1.678c-3.281-2.619-8.018-2.834-11.528-0.193
			l-21.129,15.883c-1.095,0.823-1.945,1.845-2.568,2.971C588.711,765.217,588.847,769.229,591.152,772.296z"/>
		<path style="fill:#1A1A1E;" d="M698.67,679.683l-21.129,15.883c-4.162,3.128-5,9.041-1.872,13.203
			c1.854,2.466,4.682,3.764,7.546,3.764c1.973,0,3.96-0.615,5.658-1.892l21.131-15.883c4.162-3.128,5-9.041,1.872-13.203
			C708.743,677.389,702.838,676.552,698.67,679.683z"/>
		<path style="fill:#1A1A1E;" d="M727.2,674.701c0.002-0.849,0.077-1.707,0.322-2.564l0.581-2.032l-2.109,0.095
			c-0.972,0.041-1.903-0.112-2.802-0.351c-0.879,0.32-1.801,0.554-2.785,0.598l-4.303,0.192c-0.165,2.2,0.397,4.463,1.826,6.365
			c1.765,2.348,4.417,3.6,7.138,3.718l1.047-3.667C726.361,676.194,726.752,675.425,727.2,674.701z"/>
		<path style="fill:#1A1A1E;" d="M704.979,661.697c-0.19-4.232,2.46-7.895,6.247-9.256c-0.909-0.242-1.851-0.392-2.835-0.34
			l-15.196,0.677c-5.202,0.232-9.232,4.638-9,9.84c0.226,5.063,4.398,9.011,9.413,9.011c0.143,0,0.285-0.003,0.428-0.009
			l15.196-0.677c0.974-0.043,1.885-0.274,2.757-0.588C708.113,669.325,705.167,665.915,704.979,661.697z"/>
		<path style="fill:#1A1A1E;" d="M723.192,669.848c-3.864-1.031-6.851-4.425-7.039-8.651c-0.188-4.216,2.445-7.868,6.211-9.24
			c-0.897-0.24-1.827-0.392-2.797-0.353l-5.587,0.25c-0.973,0.043-1.884,0.274-2.754,0.587c-3.786,1.361-6.436,5.024-6.247,9.256
			c0.188,4.218,3.134,7.628,7.01,8.658c0.773,0.205,1.57,0.35,2.404,0.35c0.143,0,0.285-0.003,0.428-0.009l1.284-0.057l4.303-0.192
			C721.391,670.402,722.313,670.168,723.192,669.848z"/>
		<path style="fill:#1A1A1E;" d="M740.349,650.681l-15.196,0.677c-0.986,0.044-1.909,0.279-2.79,0.6
			c-3.766,1.372-6.398,5.024-6.211,9.24c0.188,4.225,3.175,7.62,7.039,8.651c0.899,0.24,1.83,0.392,2.802,0.351l2.109-0.095
			l-0.581,2.032c-0.245,0.857-0.32,1.715-0.322,2.564c2.166-3.496,6.43-5.311,10.572-4.127c4.161,1.187,6.826,4.995,6.803,9.12
			c0.452-0.727,0.834-1.511,1.082-2.376l4.18-14.626c0.833-2.914,0.214-6.055-1.667-8.434
			C746.29,651.875,743.357,650.583,740.349,650.681z"/>
		<path style="fill:#1A1A1E;" d="M737.772,670.574c-4.142-1.184-8.406,0.631-10.572,4.127c-0.448,0.724-0.839,1.493-1.084,2.352
			l-1.047,3.667l-0.356,1.247c-0.244,0.856-0.319,1.713-0.321,2.561c2.165-3.495,6.428-5.307,10.577-4.13
			c4.161,1.19,6.824,5.001,6.798,9.126c0.453-0.729,0.836-1.515,1.084-2.382l1.402-4.914c0.242-0.848,0.318-1.695,0.322-2.535
			C744.598,675.568,741.934,671.761,737.772,670.574z"/>
		<path style="fill:#1A1A1E;" d="M734.969,680.399c-4.149-1.177-8.412,0.634-10.577,4.13c-0.447,0.722-0.837,1.49-1.082,2.347
			l-4.18,14.626c-1.431,5.006,1.468,10.226,6.475,11.658c0.867,0.246,1.738,0.365,2.597,0.365c4.103,0,7.879-2.701,9.063-6.842
			l4.18-14.626c0.242-0.846,0.318-1.693,0.323-2.532C741.793,685.4,739.13,681.589,734.969,680.399z"/>
	</g>
	<g>
		<g>
			<path style="fill:#69CCC0;" d="M430.8,651.798c0,88.311-71.591,159.898-159.901,159.898C182.591,811.696,111,740.109,111,651.798
				c0-88.311,71.591-159.899,159.899-159.899C359.21,491.899,430.8,563.487,430.8,651.798z"/>
		</g>
	</g>
	<g>
		<g>
			
				<ellipse transform="matrix(0.7071 -0.7071 0.7071 0.7071 -246.6518 833.855)" style="fill:#4F5055;" cx="883.226" cy="714.663" rx="127.774" ry="127.774"/>
		</g>
	</g>
	<g>
		<g>
			<circle style="fill:#FB9820;" cx="623.941" cy="443.895" r="237.294"/>
		</g>
	</g>
	<g>
		<g>
			<g>
				<path style="fill:#FFFFFF;" d="M171.351,659.932c-0.021-0.658-0.053-1.735-0.071-2.394l-0.403-22.888
					c-0.008-0.658-0.066-1.197-0.128-1.197c-0.062,0-0.23,0.526-0.372,1.169l-5.093,21.492c-0.162,0.638-0.43,1.682-0.594,2.32
					l-5.577,21.683c-0.164,0.638-0.837,1.16-1.496,1.16h-6.565c-0.659,0-1.317-0.525-1.463-1.168l-4.89-21.486
					c-0.146-0.642-0.378-1.695-0.514-2.339l-4.138-21.651c-0.113-0.649-0.24-1.18-0.282-1.18s-0.092,0.539-0.111,1.197l-0.826,23.07
					c-0.023,0.658-0.063,1.735-0.088,2.393l-0.811,20.97c-0.025,0.658-0.585,1.197-1.244,1.197h-8.22
					c-0.659,0-1.169-0.538-1.135-1.196l3.11-59.119c0.035-0.658,0.602-1.196,1.26-1.196h12.891c0.659,0,1.324,0.524,1.479,1.164
					l4.407,18.204c0.155,0.64,0.394,1.691,0.532,2.335l3.825,19.645c0.118,0.648,0.265,1.178,0.327,1.178
					c0.062,0,0.223-0.528,0.356-1.172l4.311-19.743c0.145-0.642,0.402-1.689,0.571-2.325l4.808-18.128
					c0.169-0.637,0.846-1.157,1.504-1.157h12.59c0.659,0,1.222,0.538,1.252,1.196l2.676,59.118c0.03,0.658-0.485,1.196-1.143,1.196
					h-8.823c-0.659,0-1.215-0.539-1.236-1.197L171.351,659.932z"/>
			</g>
		</g>
		<g>
			<g>
				<path style="fill:#FFFFFF;" d="M202.398,620.769c0.659,0,1.197,0.539,1.197,1.197v59.115c0,0.659-0.539,1.198-1.197,1.198
					h-9.123c-0.659,0-1.197-0.539-1.197-1.198v-59.115c0-0.659,0.539-1.197,1.197-1.197H202.398z"/>
			</g>
		</g>
		<g>
			<g>
				<path style="fill:#FFFFFF;" d="M213.666,669.124c0.131-0.646,0.722-0.937,1.314-0.647c0,0,6.756,3.306,11.652,3.306
					c5.27,0,8.054-2.647,8.054-6.661c0-3.833-2.409-6.025-8.509-8.669c-8.432-3.559-13.928-9.219-13.928-18.161
					c0-10.496,7.228-18.527,19.201-18.527c5.722,0,11.85,2.629,11.85,2.629c0.605,0.26,0.98,0.998,0.834,1.64l-2.028,8.889
					c-0.146,0.642-0.745,0.92-1.33,0.618c0,0-4.584-2.368-9.554-2.368c-4.967,0-7.377,2.736-7.377,5.93
					c0,3.925,2.861,5.66,9.412,8.669c8.96,4.017,13.176,9.676,13.176,18.346c0,10.312-6.551,19.073-20.482,19.073
					c-5.796,0-13.282-3.262-13.282-3.262c-0.604-0.263-0.991-1.007-0.86-1.652L213.666,669.124z"/>
			</g>
		</g>
		<g>
			<g>
				<path style="fill:#FFFFFF;" d="M254.315,669.124c0.131-0.646,0.722-0.937,1.314-0.647c0,0,6.756,3.306,11.652,3.306
					c5.271,0,8.054-2.647,8.054-6.661c0-3.833-2.409-6.025-8.509-8.669c-8.431-3.559-13.928-9.219-13.928-18.161
					c0-10.496,7.228-18.527,19.201-18.527c5.722,0,11.85,2.629,11.85,2.629c0.605,0.26,0.98,0.998,0.834,1.64l-2.028,8.889
					c-0.147,0.642-0.745,0.92-1.33,0.618c0,0-4.584-2.368-9.554-2.368c-4.967,0-7.377,2.736-7.377,5.93
					c0,3.925,2.861,5.66,9.412,8.669c8.96,4.017,13.176,9.676,13.176,18.346c0,10.312-6.551,19.073-20.482,19.073
					c-5.796,0-13.282-3.262-13.282-3.262c-0.604-0.263-0.991-1.007-0.86-1.652L254.315,669.124z"/>
			</g>
		</g>
		<g>
			<g>
				<path style="fill:#FFFFFF;" d="M305.147,620.769c0.659,0,1.197,0.539,1.197,1.197v59.115c0,0.659-0.539,1.198-1.197,1.198
					h-9.124c-0.658,0-1.197-0.539-1.197-1.198v-59.115c0-0.659,0.539-1.197,1.197-1.197H305.147z"/>
			</g>
		</g>
		<g>
			<g>
				<path style="fill:#FFFFFF;" d="M362.736,650.886c0,20.17-10.089,32.398-24.923,32.398c-15.06,0-23.868-13.782-23.868-31.305
					c0-18.435,9.712-32.214,24.697-32.214C354.228,619.765,362.736,633.91,362.736,650.886z M326.066,651.706
					c0,12.047,4.67,20.535,12.35,20.535c7.754,0,12.196-8.945,12.196-20.901c0-11.043-4.364-20.532-12.273-20.532
					C330.585,630.808,326.066,639.75,326.066,651.706z"/>
			</g>
		</g>
		<g>
			<g>
				<path style="fill:#FFFFFF;" d="M371.447,682.279c-0.659,0-1.197-0.539-1.197-1.198v-59.115c0-0.659,0.539-1.197,1.197-1.197
					h11.007c0.659,0,1.426,0.488,1.705,1.085l9.526,20.371c0.279,0.597,0.718,1.581,0.977,2.186l7.407,18.854
					c0.224,0.619,0.457,1.126,0.519,1.126c0.062,0,0.081-0.538,0.042-1.195l-0.894-23.253c-0.008-0.659-0.016-1.736-0.016-2.395
					v-15.582c0-0.659,0.539-1.197,1.198-1.197h8.146c0.659,0,1.197,0.539,1.197,1.197v59.115c0,0.659-0.539,1.198-1.197,1.198
					h-9.649c-0.659,0-1.421-0.49-1.695-1.089l-9.848-21.551c-0.274-0.599-0.713-1.583-0.976-2.187l-7.902-19.504
					c-0.235-0.615-0.479-1.098-0.541-1.072c-0.062,0.025-0.098,0.585-0.081,1.243l0.41,24.436c0.005,0.659,0.01,1.736,0.01,2.395
					v16.132c0,0.659-0.539,1.198-1.197,1.198H371.447z"/>
			</g>
		</g>
	</g>
	<g>
		<g>
			<g>
				<path style="fill:#FFFFFF;" d="M782.086,695.232c0-0.462-0.378-0.84-0.841-0.84h-11.438c-0.462,0-0.841-0.378-0.841-0.841V686.7
					c0-0.462,0.378-0.841,0.841-0.841h33.099c0.462,0,0.841,0.378,0.841,0.841v6.851c0,0.462-0.378,0.841-0.841,0.841h-11.575
					c-0.462,0-0.841,0.378-0.841,0.84v45.634c0,0.462-0.378,0.841-0.841,0.841h-6.724c-0.462,0-0.841-0.378-0.841-0.841V695.232z"/>
			</g>
		</g>
		<g>
			<g>
				<path style="fill:#FFFFFF;" d="M814.232,725.881c-0.462,0-0.932,0.367-1.045,0.815l-3.555,14.195
					c-0.112,0.448-0.582,0.815-1.045,0.815h-6.997c-0.462,0-0.744-0.366-0.626-0.813l14.33-54.222
					c0.118-0.447,0.593-0.813,1.055-0.813h9.047c0.462,0,0.939,0.365,1.058,0.812l14.53,54.224c0.12,0.447-0.161,0.812-0.623,0.812
					h-7.339c-0.462,0-0.937-0.366-1.055-0.813l-3.74-14.201c-0.118-0.447-0.592-0.813-1.055-0.813H814.232z M825.739,718.174
					c0.462,0,0.744-0.366,0.626-0.813l-3.193-12.13c-0.118-0.447-0.298-1.182-0.401-1.633l-1.969-8.797
					c-0.092-0.453-0.198-0.824-0.236-0.824s-0.14,0.372-0.227,0.826l-1.857,8.792c-0.094,0.453-0.266,1.189-0.382,1.637
					l-3.133,12.128c-0.116,0.448,0.168,0.814,0.63,0.814H825.739z"/>
			</g>
		</g>
		<g>
			<g>
				<path style="fill:#FFFFFF;" d="M847.634,687.446c0-0.462,0.374-0.896,0.832-0.964c0,0,7.027-1.039,11.878-1.039
					c6.628,0,11.138,1.328,14.213,4.474c2.528,2.57,3.963,6.465,3.963,11.189c0,7.207-7.685,13.471-7.685,13.471
					c-0.358,0.292-0.652,0.587-0.652,0.656c0,0.069,0.264,0.395,0.587,0.726c0,0,4.674,4.785,5.836,10.171
					c1.435,6.958,3.415,14.762,3.415,14.762c0.114,0.448-0.172,0.815-0.634,0.815h-6.997c-0.462,0-0.945-0.364-1.072-0.808
					c0,0-1.546-5.407-2.844-12.368c-1.298-7.291-7.477-9.495-7.477-9.495c-0.435-0.155-1.17-0.282-1.632-0.282h-2.555
					c-0.462,0-0.841,0.378-0.841,0.841v21.272c0,0.462-0.378,0.841-0.841,0.841h-6.655c-0.462,0-0.841-0.378-0.841-0.841V687.446z
					 M855.971,710.456c0,0.462,0.378,0.841,0.841,0.841h3.307c0.462,0,1.192-0.139,1.622-0.309c0,0,8.443-3.336,8.443-8.889
					c0-6.132-3.553-8.948-9.02-8.948c-2.665,0-4.368,0.334-4.368,0.334c-0.454,0.089-0.825,0.54-0.825,1.002V710.456z"/>
			</g>
		</g>
		<g>
			<g>
				<path style="fill:#FFFFFF;" d="M923.423,738.297c0,0.462-0.356,0.97-0.79,1.127c0,0-7.888,2.862-14.038,2.862
					c-7.79,0-13.666-2.404-18.039-7.457c-4.1-4.724-6.492-12.098-6.423-20.55c0-17.647,10.386-29.002,25.624-29.002
					c5.672,0,11.452,2.338,11.452,2.338c0.429,0.173,0.696,0.684,0.595,1.135l-1.476,6.563c-0.101,0.451-0.532,0.671-0.957,0.489
					c0,0-4.831-2.072-9.682-2.072c-9.84,0-16.741,7.044-16.741,20.054c0,12.677,6.423,20.217,15.99,20.217
					c3.007,0,5.56-0.884,5.56-0.884c0.437-0.151,0.794-0.653,0.794-1.115v-12.241c0-0.462-0.378-0.841-0.841-0.841H908
					c-0.462,0-0.841-0.378-0.841-0.841v-6.355c0-0.462,0.378-0.841,0.841-0.841h14.582c0.462,0,0.841,0.378,0.841,0.841V738.297z"/>
			</g>
		</g>
		<g>
			<g>
				<path style="fill:#FFFFFF;" d="M957.802,716.092c0,0.462-0.378,0.84-0.841,0.84h-15.675c-0.462,0-0.841,0.378-0.841,0.841
					v14.724c0,0.462,0.378,0.841,0.841,0.841h17.725c0.462,0,0.841,0.378,0.841,0.841v6.688c0,0.462-0.378,0.841-0.841,0.841h-26.13
					c-0.462,0-0.841-0.378-0.841-0.841V686.7c0-0.462,0.378-0.841,0.841-0.841h25.105c0.462,0,0.841,0.378,0.841,0.841v6.688
					c0,0.462-0.378,0.841-0.841,0.841h-16.7c-0.462,0-0.841,0.378-0.841,0.841v12.737c0,0.462,0.378,0.841,0.841,0.841h15.675
					c0.462,0,0.841,0.378,0.841,0.841V716.092z"/>
			</g>
		</g>
		<g>
			<g>
				<path style="fill:#FFFFFF;" d="M976.739,695.232c0-0.462-0.378-0.84-0.841-0.84H964.46c-0.462,0-0.841-0.378-0.841-0.841V686.7
					c0-0.462,0.378-0.841,0.841-0.841h33.1c0.462,0,0.841,0.378,0.841,0.841v6.851c0,0.462-0.378,0.841-0.841,0.841h-11.575
					c-0.462,0-0.841,0.378-0.841,0.84v45.634c0,0.462-0.378,0.841-0.841,0.841h-6.724c-0.462,0-0.841-0.378-0.841-0.841V695.232z"/>
			</g>
		</g>
	</g>
	<g>
		<g>
			<path style="fill:#1A1A1E;" d="M350.603,416.316c-14.317-6.527-20.574-10.282-20.574-18.785c0-6.922,5.268-12.855,16.132-12.855
				c10.865,0,18.767,3.758,23.212,6.328l5.594-24.323c-6.584-3.559-15.802-6.723-28.31-6.723c-26.174,0-41.976,17.401-41.976,40.143
				c0,19.379,12.017,31.641,30.449,39.353c13.336,5.734,18.604,10.482,18.604,18.785c0,8.702-6.09,14.436-17.612,14.436
				c-10.701,0-21.07-4.151-27.82-8.304l-5.104,24.917c6.257,4.151,18.767,8.108,31.441,8.108c30.452,0,44.772-18.984,44.772-41.332
				C379.412,437.278,370.196,425.017,350.603,416.316z"/>
		</g>
		<g>
			<path style="fill:#1A1A1E;" d="M461.87,438.859c0,23.533-7.243,34.609-20.413,34.609c-12.84,0-20.081-11.67-20.081-34.609
				v-76.727h-25.188v74.354c0,42.517,16.462,61.106,44.445,61.106c28.973,0,46.255-19.579,46.255-60.708v-74.752H461.87V438.859z"/>
		</g>
		<g>
			<path style="fill:#1A1A1E;" d="M565.229,384.874c8.889,0,15.966,2.371,21.07,4.944l5.098-23.928
				c-4.442-2.769-14.317-5.933-27.321-5.933c-33.583,0-60.577,25.312-60.577,70.794c0,37.969,19.751,66.644,58.108,66.644
				c13.497,0,23.869-2.968,28.477-5.737l-3.785-23.533c-4.944,2.374-13.333,4.353-20.906,4.353
				c-22.386,0-35.559-16.81-35.559-43.506C529.833,399.31,545.306,384.874,565.229,384.874z"/>
		</g>
		<g>
			<path style="fill:#1A1A1E;" d="M658.219,384.874c8.889,0,15.966,2.371,21.07,4.944l5.098-23.928
				c-4.441-2.769-14.317-5.933-27.321-5.933c-33.583,0-60.577,25.312-60.577,70.794c0,37.969,19.751,66.644,58.109,66.644
				c13.497,0,23.868-2.968,28.477-5.737l-3.785-23.533c-4.944,2.374-13.333,4.353-20.906,4.353
				c-22.386,0-35.559-16.81-35.559-43.506C622.824,399.31,638.296,384.874,658.219,384.874z"/>
		</g>
		<g>
			<polygon style="fill:#1A1A1E;" points="724.706,439.058 765.53,439.058 765.53,414.536 724.706,414.536 724.706,386.85 
				767.995,386.85 767.995,362.132 699.521,362.132 699.521,495.417 770.301,495.417 770.301,470.698 724.706,470.698 			"/>
		</g>
		<g>
			<path style="fill:#1A1A1E;" d="M830.537,416.316c-14.323-6.527-20.577-10.282-20.577-18.785c0-6.922,5.267-12.855,16.129-12.855
				c10.868,0,18.771,3.758,23.215,6.328l5.597-24.323c-6.589-3.559-15.805-6.723-28.313-6.723
				c-26.174,0-41.976,17.401-41.976,40.143c0,19.379,12.017,31.641,30.452,39.353c13.333,5.734,18.601,10.482,18.601,18.785
				c0,8.702-6.091,14.436-17.612,14.436c-10.701,0-21.07-4.151-27.82-8.304l-5.104,24.917c6.257,4.151,18.768,8.108,31.441,8.108
				c30.449,0,44.772-18.984,44.772-41.332C859.343,437.278,850.127,425.017,830.537,416.316z"/>
		</g>
		<g>
			<path style="fill:#1A1A1E;" d="M919.412,416.316c-14.32-6.527-20.577-10.282-20.577-18.785c0-6.922,5.268-12.855,16.132-12.855
				s18.767,3.758,23.215,6.328l5.591-24.323c-6.583-3.559-15.805-6.723-28.313-6.723c-26.171,0-41.973,17.401-41.973,40.143
				c0,19.379,12.017,31.641,30.452,39.353c13.334,5.734,18.598,10.482,18.598,18.785c0,8.702-6.087,14.436-17.612,14.436
				c-10.698,0-21.07-4.151-27.82-8.304l-5.101,24.917c6.257,4.151,18.767,8.108,31.441,8.108c30.452,0,44.772-18.984,44.772-41.332
				C948.218,437.278,939.002,425.017,919.412,416.316z"/>
		</g>
	</g>
</g>
</svg>
